HIERARCHY
ROOT Hips
{
  OFFSET -21.6994 31.6921 0
  CHANNELS 6 Xposition Yposition Zposition Zrotation Xrotation Yrotation
  JOINT Bip01_Pelvis
  {
    OFFSET 0 0 0
    CHANNELS 6 Xposition Yposition Zposition Zrotation Xrotation Yrotation
    JOINT BN_Tail_01
    {
      OFFSET -7.25226 -1.74978 0
      CHANNELS 6 Xposition Yposition Zposition Zrotation Xrotation Yrotation
      JOINT BN_Tail_02
      {
        OFFSET 15.788 0 0
        CHANNELS 6 Xposition Yposition Zposition Zrotation Xrotation Yrotation
        JOINT BN_Tail_03
        {
          OFFSET 16.0015 0 0
          CHANNELS 6 Xposition Yposition Zposition Zrotation Xrotation Yrotation
          JOINT BN_Tail_04
          {
            OFFSET 16.1689 0 0
            CHANNELS 6 Xposition Yposition Zposition Zrotation Xrotation Yrotation
            End Site
            {
              OFFSET 0 0 0
            }
          }
        }
      }
    }
    JOINT Bip01_Spine
    {
      OFFSET 6.38383 2.70859 0.585432
      CHANNELS 6 Xposition Yposition Zposition Zrotation Xrotation Yrotation
      JOINT BN_Mane_02
      {
        OFFSET 6.12662 8.45826 0
        CHANNELS 6 Xposition Yposition Zposition Zrotation Xrotation Yrotation
        End Site
        {
          OFFSET 0 0 0
        }
      }
      JOINT Bip01_R_Thigh
      {
        OFFSET -7.04074 -2.18223 -5.47025
        CHANNELS 6 Xposition Yposition Zposition Zrotation Xrotation Yrotation
        JOINT Bip01_R_Calf
        {
          OFFSET 13.6591 0 0
          CHANNELS 6 Xposition Yposition Zposition Zrotation Xrotation Yrotation
          JOINT Bip01_R_HorseLink
          {
            OFFSET 9.07516 0 0
            CHANNELS 6 Xposition Yposition Zposition Zrotation Xrotation Yrotation
            JOINT Bip01_R_Foot
            {
              OFFSET 8.13856 0 0
              CHANNELS 6 Xposition Yposition Zposition Zrotation Xrotation Yrotation
              JOINT Bip01_R_Toe0
              {
                OFFSET 3.79737 6.30086 0
                CHANNELS 6 Xposition Yposition Zposition Zrotation Xrotation Yrotation
                JOINT Bip01_R_Toe0Nub
                {
                  OFFSET 0.838764 0 0
                  CHANNELS 6 Xposition Yposition Zposition Zrotation Xrotation Yrotation
                  End Site
                  {
                    OFFSET 0 0 0
                  }
                }
              }
            }
          }
        }
      }
      JOINT Bip01_L_Thigh
      {
        OFFSET -6.18667 -2.14873 5.3508
        CHANNELS 6 Xposition Yposition Zposition Zrotation Xrotation Yrotation
        JOINT Bip01_L_Calf
        {
          OFFSET 13.6591 0 0
          CHANNELS 6 Xposition Yposition Zposition Zrotation Xrotation Yrotation
          JOINT Bip01_L_HorseLink
          {
            OFFSET 9.07515 0 0
            CHANNELS 6 Xposition Yposition Zposition Zrotation Xrotation Yrotation
            JOINT Bip01_L_Foot
            {
              OFFSET 8.13856 0 0
              CHANNELS 6 Xposition Yposition Zposition Zrotation Xrotation Yrotation
              JOINT Bip01_L_Toe0
              {
                OFFSET 3.79737 6.30086 0
                CHANNELS 6 Xposition Yposition Zposition Zrotation Xrotation Yrotation
                JOINT Bip01_L_Toe0Nub
                {
                  OFFSET 0.838764 0 0
                  CHANNELS 6 Xposition Yposition Zposition Zrotation Xrotation Yrotation
                  End Site
                  {
                    OFFSET 0 0 0
                  }
                }
              }
            }
          }
        }
      }
      JOINT Bip01_Spine1
      {
        OFFSET 12.1687 -0.0105438 0
        CHANNELS 6 Xposition Yposition Zposition Zrotation Xrotation Yrotation
        JOINT BN_Mane_R_01
        {
          OFFSET -0.157498 5.09008 -6.54008
          CHANNELS 6 Xposition Yposition Zposition Zrotation Xrotation Yrotation
          End Site
          {
            OFFSET 0 0 0
          }
        }
        JOINT BN_Mane_R_02
        {
          OFFSET -0.1575 5.09007 6.54
          CHANNELS 6 Xposition Yposition Zposition Zrotation Xrotation Yrotation
          End Site
          {
            OFFSET 0 0 0
          }
        }
        JOINT BN_Mane_01
        {
          OFFSET 8.29709 8.50414 0
          CHANNELS 6 Xposition Yposition Zposition Zrotation Xrotation Yrotation
          End Site
          {
            OFFSET 0 0 0
          }
        }
        JOINT Bip01_Spine2
        {
          OFFSET 13.2802 -0.0100708 1.51992e-005
          CHANNELS 6 Xposition Yposition Zposition Zrotation Xrotation Yrotation
          JOINT Bip01_Neck
          {
            OFFSET 12.4891 -6.66662 0
            CHANNELS 6 Xposition Yposition Zposition Zrotation Xrotation Yrotation
            JOINT Bip01_R_Clavicle
            {
              OFFSET -7.4542 -2.82621 -1.17874
              CHANNELS 6 Xposition Yposition Zposition Zrotation Xrotation Yrotation
              JOINT Bip01_R_UpperArm
              {
                OFFSET 13.2557 0 0
                CHANNELS 6 Xposition Yposition Zposition Zrotation Xrotation Yrotation
                JOINT Bip01_R_Forearm
                {
                  OFFSET 12.8897 0 0
                  CHANNELS 6 Xposition Yposition Zposition Zrotation Xrotation Yrotation
                  JOINT Bip01_R_Hand
                  {
                    OFFSET 11.2622 0 0
                    CHANNELS 6 Xposition Yposition Zposition Zrotation Xrotation Yrotation
                    JOINT Bip01_R_Finger0
                    {
                      OFFSET 3.98015 -0.208661 -0.0949803
                      CHANNELS 6 Xposition Yposition Zposition Zrotation Xrotation Yrotation
                      JOINT Bip01_R_Finger0Nub
                      {
                        OFFSET 6.57561 0 0
                        CHANNELS 6 Xposition Yposition Zposition Zrotation Xrotation Yrotation
                        End Site
                        {
                          OFFSET 0 0 0
                        }
                      }
                    }
                  }
                }
              }
            }
            JOINT Bip01_L_Clavicle
            {
              OFFSET -7.4541 -2.82679 1.17708
              CHANNELS 6 Xposition Yposition Zposition Zrotation Xrotation Yrotation
              JOINT Bip01_L_UpperArm
              {
                OFFSET 13.2558 0 0
                CHANNELS 6 Xposition Yposition Zposition Zrotation Xrotation Yrotation
                JOINT Bip01_L_Forearm
                {
                  OFFSET 12.8897 0 0
                  CHANNELS 6 Xposition Yposition Zposition Zrotation Xrotation Yrotation
                  JOINT Bip01_L_Hand
                  {
                    OFFSET 11.2622 0 0
                    CHANNELS 6 Xposition Yposition Zposition Zrotation Xrotation Yrotation
                    JOINT Bip01_L_Finger0
                    {
                      OFFSET 3.98014 -0.20866 0.0949764
                      CHANNELS 6 Xposition Yposition Zposition Zrotation Xrotation Yrotation
                      JOINT Bip01_L_Finger0Nub
                      {
                        OFFSET 6.57562 0 0
                        CHANNELS 6 Xposition Yposition Zposition Zrotation Xrotation Yrotation
                        End Site
                        {
                          OFFSET 0 0 0
                        }
                      }
                    }
                  }
                }
              }
            }
            JOINT Bip01_Neck1
            {
              OFFSET 4.19352 -0.00332451 0
              CHANNELS 6 Xposition Yposition Zposition Zrotation Xrotation Yrotation
              JOINT Bip01_Head
              {
                OFFSET 4.17604 0.298252 0
                CHANNELS 6 Xposition Yposition Zposition Zrotation Xrotation Yrotation
                JOINT BN_Eye_R_01
                {
                  OFFSET 6.53258 -3.90694 -2.55361
                  CHANNELS 6 Xposition Yposition Zposition Zrotation Xrotation Yrotation
                  End Site
                  {
                    OFFSET 0 0 0
                  }
                }
                JOINT BN_Eye_L_01
                {
                  OFFSET 6.5326 -3.90694 2.55371
                  CHANNELS 6 Xposition Yposition Zposition Zrotation Xrotation Yrotation
                  End Site
                  {
                    OFFSET 0 0 0
                  }
                }
                JOINT BN_Ear_R_01
                {
                  OFFSET 1.75934 -4.1584 -4.45634
                  CHANNELS 6 Xposition Yposition Zposition Zrotation Xrotation Yrotation
                  End Site
                  {
                    OFFSET 0 0 0
                  }
                }
                JOINT BN_Ear_L_01
                {
                  OFFSET 1.75933 -4.15841 4.45616
                  CHANNELS 6 Xposition Yposition Zposition Zrotation Xrotation Yrotation
                  End Site
                  {
                    OFFSET 0 0 0
                  }
                }
                JOINT BN_Beard_L_01
                {
                  OFFSET 11.2964 -1.06183 2.32054
                  CHANNELS 6 Xposition Yposition Zposition Zrotation Xrotation Yrotation
                  End Site
                  {
                    OFFSET 0 0 0
                  }
                }
                JOINT BN_Beard_R_01
                {
                  OFFSET 11.2964 -1.06182 -2.32036
                  CHANNELS 6 Xposition Yposition Zposition Zrotation Xrotation Yrotation
                  End Site
                  {
                    OFFSET 0 0 0
                  }
                }
                JOINT BN_Mouth_0
                {
                  OFFSET 1.3149 1.30001 0
                  CHANNELS 6 Xposition Yposition Zposition Zrotation Xrotation Yrotation
                  End Site
                  {
                    OFFSET 0 0 0
                  }
                }
                JOINT Bip01_HeadNub
                {
                  OFFSET 12.6869 0 0
                  CHANNELS 6 Xposition Yposition Zposition Zrotation Xrotation Yrotation
                  End Site
                  {
                    OFFSET 0 0 0
                  }
                }
              }
            }
          }
        }
      }
    }
  }
}
MOTION
Frames:	4
Frame Time:	0.0333333
-21.6994 27.9295 0 -180 -90 -90 0 1.13687e-013 0 -89.9974 1.65211 -89.998 -7.25225 -1.74978 2.91038e-011 -29.129 10.7053 175.79 15.788 3.8147e-006 -9.53674e-007 -41.2179 20.3668 12.9498 16.0015 0 1.77636e-015 -42.0231 -3.58054 28.6145 16.1689 -7.6294e-006 -3.8147e-006 -36.0002 -0.229429 30.8263 6.33245 2.89308 2.54004e-006 21.992 -2.06124e-012 -9.22341e-012 6.12663 8.45826 2.91038e-011 -88.9944 -0.0323181 -179.967 -6.95507 -0.311037 -5.42737 -90.5723 0.999452 173.787 13.6591 -1.90735e-006 -8.88178e-016 -41.5484 7.32904e-006 6.17834e-006 9.07516 1.90735e-006 -8.88178e-016 35.8068 1.31162e-006 -4.84049e-007 8.13856 7.10543e-015 0 26.3825 3.07596 5.43334 3.79736 6.30085 0 89.9467 1.15525e-009 1.47853e-009 0.838768 5.96046e-008 9.53674e-007 -2.5066e-008 3.09094e-010 -1.86195e-009 -6.95508 -0.311062 5.42738 -141.704 -2.31158 -176.828 13.6591 2.86102e-006 0 -90.011 -1.19383e-007 9.58093e-006 9.07516 1.90735e-006 -4.76837e-007 61.8399 0.00600014 -0.00359407 8.13856 -3.8147e-006 -0.00114012 -3.11 -12.8571 -4.00196 3.79699 6.3011 -0.00101376 89.9984 0.000168093 -12.488 0.838763 -1.38778e-017 9.53674e-007 179.961 -0.007816 0.00339981 12.1681 -0.0104809 -2.91038e-011 -7.77667 -2.00048e-011 4.49608e-011 -0.157498 5.09008 -6.54008 -92.7422 -1.49244e-005 -167.983 -0.157497 5.09006 6.54 87.255 -0.000390274 12.0139 8.2971 8.50413 2.91038e-011 -91.651 -0.0231628 -179.978 13.2792 -0.0098629 -8.73115e-011 -14.6228 8.59282e-011 4.30655e-011 12.4882 -6.66644 -7.61991e-006 -19.6204 1.71625e-010 1.50045e-010 -6.45361 -4.67819 -1.17794 -160.428 -52.226 111.902 13.2557 0 -1.90735e-006 135.848 80.8846 -165.125 12.8897 0 1.77636e-015 -65.188 -7.07393e-006 -1.52588e-005 11.2623 4.76837e-007 0 -94.1697 72.8762 125.921 3.98016 -0.208665 -0.0949841 2.06108 8.51483 -35.8328 6.57562 -2.98023e-006 0 -179.96 -9.99836e-006 1.73157e-005 -6.45361 -4.6782 1.17789 -160.44 55.331 -93.644 13.2558 -1.90735e-006 1.77636e-015 69.3212 -12.879 93.6778 12.8897 -1.77636e-015 0 -121.349 2.56335e-006 -9.22617e-007 11.2623 -1.90735e-006 0 -29.8447 -84.2967 -50.9448 3.98016 -0.208661 0.0949755 14.2321 -11.4819 62.2536 6.57563 0 -1.19209e-007 -1.29331e-007 -1.66047e-008 1.26406e-008 4.19499 -0.00312614 1.16415e-010 20.5971 -1.93641e-010 -5.14485e-011 4.17604 0.298252 2.91038e-011 4.32702 2.72549e-011 -3.30099e-011 6.53259 -3.90694 -2.55361 133.025 18.1401 163.594 6.5326 -3.90695 2.55371 -46.976 18.1112 -16.4184 1.75935 -4.1584 -4.45634 24.7931 -39.7306 142.462 1.75934 -4.15841 4.45616 -155.196 -39.7317 -37.5282 11.2964 -1.06184 2.32054 151.28 -2.12726 -89.9983 11.2964 -1.06183 -2.32036 -28.7077 -2.13817 89.9962 1.31489 1.30001 5.82077e-011 -142.031 -0.0307617 -179.989 12.6869 -1.90735e-006 -2.1684e-019 -5.3724e-008 -1.47575e-010 3.05068e-011 
-23.0989 28.0989 -5.8817e-008 -0.138641 -90 90 0 1.13687e-013 0 -89.9962 1.65124 -90.3748 -7.25225 -1.74978 2.91027e-011 -31.3602 11.1677 175.371 15.788 3.8147e-006 -9.53674e-007 -41.2639 22.7566 14.4268 16.0015 7.10543e-015 -5.32907e-015 -44.5119 0.207955 28.2006 16.1689 -7.6294e-006 -3.8147e-006 -38.5263 2.03747 22.0219 6.33175 2.89294 -0.0440737 19.5595 0.198173 -0.651276 6.12663 8.45826 -1.1147e-008 -88.9944 -0.0323181 -179.967 -6.99579 -0.624728 -5.30163 -92.849 0.505345 173.645 13.6591 -1.90735e-006 -4.44089e-015 -48.7248 6.53238e-006 7.0943e-006 9.07516 1.90735e-006 -8.88178e-016 42.2404 1.20875e-006 -5.85989e-007 8.13856 0 1.06581e-014 22.6127 3.12507 5.52726 3.79736 6.30085 -1.93925e-011 89.7202 8.76048e-010 1.6498e-009 0.838768 5.96046e-008 9.53674e-007 -2.5066e-008 3.09094e-010 -1.86195e-009 -6.87189 -0.586894 5.55234 -143.958 -3.08086 -177.891 13.6591 2.86102e-006 -1.77636e-015 -88.4393 8.39261e-008 9.56969e-006 9.07516 1.90735e-006 -4.76837e-007 55.6217 0.00390052 -0.00460175 8.13856 -3.81469e-006 -0.00114012 -2.68341 -12.8802 -3.98824 3.79699 6.3011 -0.00101376 89.5626 0.0971559 -12.493 0.838763 -6.84522e-015 9.53674e-007 179.961 -0.007816 0.00339981 12.1681 -0.0104809 -1.52565e-011 -5.7159 0.0628116 0.522715 -0.157498 5.09008 -6.54008 -93.2757 -0.11191 -168 -0.157497 5.09006 6.54 87.255 -0.000390274 12.0139 8.2971 8.50413 -3.84845e-009 -91.6509 -0.0231781 -179.978 13.2792 -0.0098629 -8.28144e-011 -12.582 -0.0231429 0.592848 12.4882 -6.66644 -7.62002e-006 -18.5363 0.0241747 -0.397118 -6.5492 -4.55332 -1.12712 -162.03 -52.3357 111.258 13.2557 0 -1.90735e-006 92.0674 74.0001 -120.521 12.8897 -7.10543e-015 5.32907e-015 -83.1094 -1.20474e-005 -1.61781e-005 11.2623 4.76837e-007 0 -93.8242 72.6299 130.62 3.98016 -0.208665 -0.0949841 2.05996 8.51616 -29.881 6.57562 -2.98023e-006 -2.66454e-014 -179.96 -9.99818e-006 1.73161e-005 -6.53174 -4.55245 1.22858 -160.959 55.2203 -94.3262 13.2558 -1.90735e-006 -3.37508e-014 67.4917 -21.3782 94.7038 12.8897 -7.10543e-015 -1.77636e-015 -120.588 2.43859e-006 -7.86403e-007 11.2623 -1.90735e-006 -3.19744e-014 -26.7323 -81.9476 -53.8155 3.98016 -0.208661 0.0949754 14.2427 -11.4892 62.4643 6.57563 0 -1.19209e-007 -1.29331e-007 -1.66047e-008 1.26406e-008 4.19499 -0.00312614 1.15955e-010 18.7761 0.144844 0.336873 4.17604 0.298252 3.35221e-011 2.91291 0.675475 0.0943192 6.53259 -3.90694 -2.55361 133.025 18.1401 163.594 6.5326 -3.90695 2.55371 -46.976 18.1112 -16.4184 1.75935 -4.1584 -4.45634 24.7977 -39.7682 142.919 1.75934 -4.15841 4.45616 -155.187 -39.7713 -37.0653 11.2964 -1.06184 2.32054 151.249 -2.53517 -90.0294 11.2964 -1.06183 -2.32036 -28.7255 -2.61399 89.9727 1.31489 1.30001 1.424e-010 -142.366 -0.031189 -179.989 12.6869 -1.90735e-006 -1.11022e-016 -5.3724e-008 -1.47574e-010 3.05068e-011 
-24.4763 28.3047 -1.16166e-007 -0.29805 -90 90 0 1.13687e-013 0 -89.9956 1.651 -90.7836 -7.25225 -1.74978 2.91045e-011 -33.2416 11.573 174.967 15.788 3.8147e-006 -9.53674e-007 -41.2055 24.876 15.7771 16.0015 -7.10543e-015 1.77636e-015 -46.6446 3.54249 27.904 16.1689 -7.6294e-006 -3.8147e-006 -40.1462 4.11412 14.2608 6.33104 2.8928 -0.0871372 16.8878 0.433781 -1.37066 6.12663 8.45826 -2.07317e-008 -88.9944 -0.0323181 -179.967 -7.0242 -0.969148 -5.1662 -94.1695 -0.217347 173.472 13.6591 -1.90735e-006 -7.99361e-015 -53.6785 5.95065e-006 7.69586e-006 9.07516 1.90735e-006 -5.32907e-015 47.1014 1.56917e-006 -1.91434e-007 8.13856 0 2.30926e-014 19.0629 3.18549 5.60579 3.79736 6.30085 1.00803e-010 89.4996 -1.2844e-009 5.63688e-010 0.838768 5.96047e-008 9.53674e-007 -2.5066e-008 3.09094e-010 -1.86195e-009 -6.76409 -0.886893 5.68512 -145.217 -3.77248 -179.09 13.6591 2.86102e-006 8.88178e-016 -85.3669 5.44877e-007 9.5428e-006 9.07516 1.90735e-006 -4.76837e-007 48.6848 0.00408566 -0.00439774 8.13856 -3.81469e-006 -0.00114012 -1.9087 -12.9228 -3.96229 3.79699 6.3011 -0.00101376 89.1317 0.193072 -12.4971 0.838763 -2.19269e-015 9.53674e-007 179.961 -0.007816 0.00339981 12.1681 -0.0104809 -3.3803e-012 -3.42075 0.15805 1.11719 -0.157498 5.09008 -6.54008 -93.8246 -0.22691 -168.018 -0.157497 5.09006 6.54 87.255 -0.000384725 12.0139 8.2971 8.50413 -7.90165e-009 -91.651 -0.0231781 -179.977 13.2792 -0.0098629 -7.81137e-011 -10.3706 -0.0240612 1.26268 12.4882 -6.66644 -7.62047e-006 -17.4499 0.0449427 -0.840182 -6.64224 -4.43147 -1.07738 -163.665 -52.438 110.561 13.2557 -7.10543e-015 -1.90735e-006 80.2216 64.939 -107.257 12.8897 -4.08562e-014 -5.32907e-015 -96.5699 -7.81129e-006 -1.94875e-005 11.2623 4.76837e-007 -5.32907e-015 -97.6051 72.1614 136.202 3.98016 -0.208665 -0.0949841 2.05583 8.5161 -23.3623 6.57562 -2.98023e-006 -5.50671e-014 -179.96 -9.99797e-006 1.73166e-005 -6.60769 -4.42976 1.2782 -161.442 55.108 -95.0779 13.2558 -1.90735e-006 -6.39488e-014 65.6355 -30.4729 95.3924 12.8897 -1.59872e-014 3.55271e-015 -118.498 1.80243e-006 -8.83686e-007 11.2623 -1.90735e-006 -5.86198e-014 -25.405 -79.529 -57.6546 3.98016 -0.208661 0.0949754 14.2645 -11.5073 62.9903 6.57563 -3.55271e-015 -1.19209e-007 -1.29331e-007 -1.66047e-008 1.26406e-008 4.19499 -0.00312614 1.15507e-010 17.0105 0.330472 0.709549 4.17604 0.298252 4.47016e-011 1.20702 1.44397 0.20401 6.53259 -3.90694 -2.55361 133.025 18.1401 163.594 6.5326 -3.90695 2.55371 -46.976 18.1112 -16.4184 1.75935 -4.1584 -4.45634 24.8029 -39.806 143.39 1.75934 -4.15841 4.45616 -155.178 -39.8107 -36.5888 11.2964 -1.06184 2.32054 151.146 -3.65024 -90.2389 11.2964 -1.06183 -2.32036 -28.7828 -3.90544 89.7705 1.31489 1.30001 1.89642e-010 -142.691 -0.0315552 -179.989 12.6869 -1.90735e-006 -2.22045e-016 -5.3724e-008 -1.47573e-010 3.0507e-011 
-25.8736 28.5283 -1.74129e-007 65.5067 -90 155.973 0 1.13687e-013 0 -89.9931 1.64939 -91.224 -7.25225 -1.74978 2.91031e-011 -34.8469 11.9368 174.564 15.788 3.8147e-006 -9.53674e-007 -41.0098 26.8064 17.0399 16.0015 -3.55271e-015 -1.77636e-015 -48.5239 6.53896 27.6831 16.1689 -7.6294e-006 -3.8147e-006 -41.1808 6.01311 7.05813 6.32947 2.89269 -0.134897 14.0712 0.696623 -2.11209 6.12663 8.45826 -2.73483e-008 -88.9944 -0.0323334 -179.967 -7.03291 -1.33133 -5.0205 -94.9945 -0.941919 173.152 13.6591 -1.90735e-006 -1.33227e-014 -57.3407 5.51526e-006 8.1269e-006 9.07516 1.90735e-006 -3.55271e-015 51.0908 9.26288e-007 -6.87263e-007 8.13856 -7.10543e-015 2.93099e-014 15.5644 3.25643 5.67297 3.79736 6.30085 6.30251e-011 89.2832 2.19993e-005 0.000113 0.838768 5.96046e-008 9.53674e-007 -2.5066e-008 3.09094e-010 -1.86195e-009 -6.63234 -1.19898 5.82605 -145.747 -4.39625 179.64 13.6591 2.86102e-006 0 -81.1008 1.22537e-006 9.46232e-006 9.07516 1.90735e-006 -4.76837e-007 41.1523 0.00514865 -0.00322727 8.13856 -3.81468e-006 -0.00114012 -1.06753 -12.9824 -3.93116 3.79699 6.3011 -0.00101376 88.4835 0.336807 -12.5012 0.838763 2.45637e-015 9.53674e-007 179.961 -0.007816 0.00339981 12.1681 -0.0104809 4.81726e-012 -0.99052 0.281026 1.74296 -0.157498 5.09008 -6.54008 -95.2779 -0.532353 -168.058 -0.157497 5.09006 6.54 87.255 -0.000389849 12.0139 8.2971 8.50413 -1.20793e-008 -91.651 -0.0231781 -179.978 13.2792 -0.0098629 -7.32689e-011 -8.04618 0.000302788 1.97103 12.4882 -6.66644 -7.62119e-006 -16.3375 0.0550111 -1.31644 -6.73437 -4.3009 -1.01914 -165.39 -52.5332 109.79 13.2557 -3.55271e-015 -1.90735e-006 76.0633 55.6554 -101.395 12.8897 -1.59872e-014 0 -106.277 5.45477e-006 -1.87084e-005 11.2623 4.76837e-007 3.55271e-015 -104.764 71.4012 141.74 3.98016 -0.208665 -0.0949841 2.04859 8.51851 -17.4651 6.57562 -2.98023e-006 -9.4147e-014 -179.96 -9.9978e-006 1.73171e-005 -6.68004 -4.29891 1.33598 -161.89 54.9777 -95.8925 13.2558 -1.90735e-006 -7.63833e-014 63.8144 -40.0292 95.6141 12.8897 -1.42109e-014 0 -115.222 1.17784e-006 -9.45875e-007 11.2623 -1.90735e-006 -9.05942e-014 -25.4234 -77.2566 -62.0965 3.98016 -0.208661 0.0949754 14.2974 -11.5281 63.7134 6.57563 1.77636e-015 -1.19209e-007 -1.29331e-007 -1.66047e-008 1.26406e-008 4.19499 -0.00312614 1.15067e-010 15.2294 0.53816 1.11333 4.17604 0.298252 6.06695e-011 -0.666518 2.30623 0.337078 6.53259 -3.90694 -2.55361 133.025 18.1402 163.594 6.5326 -3.90695 2.55371 -46.976 18.1112 -16.4184 1.75935 -4.1584 -4.45634 24.818 -39.8768 144.66 1.75934 -4.15841 4.45616 -155.162 -39.8802 -35.3196 11.2964 -1.06184 2.32054 151.018 -4.97058 -90.4778 11.2964 -1.06183 -2.32036 -28.856 -5.43683 89.5401 1.31489 1.30001 1.38699e-010 -143.25 -0.035141 -179.988 12.6869 -1.90735e-006 1.33227e-015 -5.3724e-008 -1.47575e-010 3.05067e-011 
